# xmcd
#
# Track frame offsets: 
#        150
#        11675
#        23475
#        34640
#        47802
#        57732
#        68735
#        82527
#        96265
#        109837
#        120180
#        130922
#        142447
#        154282
#        167902
#        179312
#        187915
#        200430
#
# Disc length: 2847 seconds
#
# Revision: 2
# Processed by: cddbd v1.5.2PL0 Copyright (c) Steve Scherf et al.
# Submitted via: ExactAudioCopy v0.99pb5
#
DISCID=f10b1d12
DTITLE=Various Artist - The History Of Country Music - The Fifties - Volume 1
DTITLE=Various Artist - CD 2
DYEAR=1993
DGENRE=Country
TTITLE0=Marty Robbins - The story of my life
TTITLE1=Goldie Hill - I let the stars get in my eyes
TTITLE2=Hank Snow - Let me go, lover
TTITLE3=Jim Reeves - Four walls
TTITLE4=Eddy Arnold - I wanna play house with you
TTITLE5=Carl Smith - (When you feel like you're in love) don't just st
TTITLE5=and there
TTITLE6=Lefty Frizzell - I want to be with you always
TTITLE7=Red Foley - Birmingham bounce
TTITLE8=Davis Sisters - I forgot more than you'll ever know
TTITLE9=Johnny Cash And The Tennessee Two - There you go
TTITLE10=Rusty and Doug - Hey sheriff
TTITLE11=Hank Williams with His Drifting Cowboys - Your cheatin' heart
TTITLE12=Johnny Horton - When it's springtime in Alaska (it's forty be
TTITLE12=low)
TTITLE13=Ray Price - City lights
TTITLE14=Webb Pierce and Red Sovine - Why baby why
TTITLE15=Don Gibson - Blue, blue day
TTITLE16=Johnny Cash - I walk the line
TTITLE17=Kitty Wells and Red Foley - One by one
EXTD=
EXTT0=
EXTT1=
EXTT2=
EXTT3=
EXTT4=
EXTT5=
EXTT6=
EXTT7=
EXTT8=
EXTT9=
EXTT10=
EXTT11=
EXTT12=
EXTT13=
EXTT14=
EXTT15=
EXTT16=
EXTT17=
PLAYORDER=
